HIERARCHY
ROOT Hips
{
	OFFSET 0.000000 0.000000 0.000000
	CHANNELS 6 Xposition Yposition Zposition Xrotation Yrotation Zrotation
	JOINT LeftUpLeg_virtual
	{
		OFFSET 0.000000 0.000000 0.000000
		CHANNELS 3 Xrotation Yrotation Zrotation
		JOINT LeftUpLeg
		{
			OFFSET 15.427100 -6.655098 0.678600
			CHANNELS 3 Xrotation Yrotation Zrotation
			JOINT LeftLeg
			{
				OFFSET 4.081073 -39.591068 13.024000
				CHANNELS 3 Xrotation Yrotation Zrotation
				JOINT LeftFoot
				{
					OFFSET -4.081074 -37.707932 -15.979700
					CHANNELS 3 Xrotation Yrotation Zrotation
					JOINT LeftToeBase
					{
						OFFSET 5.346399 -15.068900 20.645000
						CHANNELS 3 Xrotation Yrotation Zrotation
						JOINT LeftToe_End
						{
							OFFSET 2.754700 0.931300 11.300900
							CHANNELS 3 Xrotation Yrotation Zrotation
							End Site
							{
								OFFSET 0 0 0
							}
						}
					}
				}
			}
		}
	}
	JOINT RightUpLeg_virtual
	{
		OFFSET 0.000000 0.000000 0.000000
		CHANNELS 3 Xrotation Yrotation Zrotation
		JOINT RightUpLeg
		{
			OFFSET -15.569500 -6.655098 0.678600
			CHANNELS 3 Xrotation Yrotation Zrotation
			JOINT RightLeg
			{
				OFFSET -4.081825 -39.591045 13.023800
				CHANNELS 3 Xrotation Yrotation Zrotation
				JOINT RightFoot
				{
					OFFSET 4.081824 -37.707954 -15.979600
					CHANNELS 3 Xrotation Yrotation Zrotation
					JOINT RightToeBase
					{
						OFFSET -5.346400 -15.068900 20.645000
						CHANNELS 3 Xrotation Yrotation Zrotation
						JOINT RightToe_End
						{
							OFFSET -2.754700 0.931300 11.300900
							CHANNELS 3 Xrotation Yrotation Zrotation
							End Site
							{
								OFFSET 0 0 0
							}
						}
					}
				}
			}
		}
	}
	JOINT Spine_virtual
	{
		OFFSET 0.000000 0.000000 0.000000
		CHANNELS 3 Xrotation Yrotation Zrotation
		JOINT Spine
		{
			OFFSET -0.279200 12.230698 -2.892100
			CHANNELS 3 Xrotation Yrotation Zrotation
			JOINT Spine1
			{
				OFFSET -0.232667 10.192268 -1.242267
				CHANNELS 3 Xrotation Yrotation Zrotation
				JOINT Spine1_split
				{
					OFFSET -0.232667 10.192268 -1.242267
					CHANNELS 3 Xrotation Yrotation Zrotation
					JOINT Spine2
					{
						OFFSET -0.232667 10.192268 -1.242267
						CHANNELS 3 Xrotation Yrotation Zrotation
						JOINT Neck_virtual
						{
							OFFSET 0.000000 0.000000 0.000000
							CHANNELS 3 Xrotation Yrotation Zrotation
							JOINT Neck
							{
								OFFSET -0.418800 17.814194 8.416900
								CHANNELS 3 Xrotation Yrotation Zrotation
								JOINT Head
								{
									OFFSET 0.000000 7.031097 3.806800
									CHANNELS 3 Xrotation Yrotation Zrotation
									JOINT HeadTop_End
									{
										OFFSET 0.000000 24.646606 12.978600
										CHANNELS 3 Xrotation Yrotation Zrotation
										End Site
										{
											OFFSET 0 0 0
										}
									}
								}
							}
						}
						JOINT LeftShoulder_virtual
						{
							OFFSET 0.000000 0.000000 0.000000
							CHANNELS 3 Xrotation Yrotation Zrotation
							JOINT LeftShoulder
							{
								OFFSET 8.476499 7.247704 -3.868750
								CHANNELS 3 Xrotation Yrotation Zrotation
								JOINT LeftShoulder_split
								{
									OFFSET 8.476499 7.247704 -3.868750
									CHANNELS 3 Xrotation Yrotation Zrotation
									JOINT LeftArm
									{
										OFFSET 9.308998 -2.777710 0.208600
										CHANNELS 3 Xrotation Yrotation Zrotation
										JOINT LeftForeArm
										{
											OFFSET 29.972298 0.000000 0.000000
											CHANNELS 3 Xrotation Yrotation Zrotation
											JOINT LeftHand
											{
												OFFSET 26.026505 0.000000 0.000000
												CHANNELS 3 Xrotation Yrotation Zrotation
												End Site
												{
													OFFSET 0 0 0
												}
											}
										}
									}
								}
							}
						}
						JOINT RightShoulder_virtual
						{
							OFFSET 0.000000 0.000000 0.000000
							CHANNELS 3 Xrotation Yrotation Zrotation
							JOINT RightShoulder
							{
								OFFSET -7.570500 7.247704 -3.868750
								CHANNELS 3 Xrotation Yrotation Zrotation
								JOINT RightShoulder_split
								{
									OFFSET -7.570500 7.247704 -3.868750
									CHANNELS 3 Xrotation Yrotation Zrotation
									JOINT RightArm
									{
										OFFSET -9.308998 -2.777710 0.208500
										CHANNELS 3 Xrotation Yrotation Zrotation
										JOINT RightForeArm
										{
											OFFSET -29.972300 0.000000 0.000000
											CHANNELS 3 Xrotation Yrotation Zrotation
											JOINT RightHand
											{
												OFFSET -26.026505 0.000000 0.000000
												CHANNELS 3 Xrotation Yrotation Zrotation
												End Site
												{
													OFFSET 0 0 0
												}
											}
										}
									}
								}
							}
						}
					}
				}
			}
		}
	}
}
MOTION
Frames: 9
Frame Time: 0.03333333
-1.325427 78.151749 3.314754 0.000000 0.000000 0.000000 9.810768 -47.030029 12.024364 -58.812614 27.539142 33.059830 45.643572 -15.977539 5.623785 6.347231 -2.656419 -16.995642 -0.865899 -2.873509 15.861496 0.000000 0.000000 0.000000 11.040976 -46.718463 13.359190 -24.102848 2.027902 -20.481067 39.704016 5.638973 -6.902549 -25.891121 5.318513 24.615460 12.232158 4.805538 1.028939 0.000000 0.000000 0.000000 8.961611 -54.405291 12.146186 11.131234 4.435061 -3.372647 4.974158 8.734683 -4.274849 0.002251 -1.935838 -0.391632 0.000000 0.000000 0.000000 -2.022874 7.744468 -2.281316 -1.135512 13.616211 0.800657 -1.703899 15.821008 -2.430648 0.000000 0.000000 0.000000 -4.640044 7.475499 -2.900519 0.837892 -15.461207 -0.843327 7.211285 -0.434495 0.839875 -10.091639 1.355324 -43.009124 -24.639494 -36.511548 -16.785634 0.000000 0.000000 0.000000 -4.855497 7.123191 -2.171519 -2.839653 16.374009 1.438220 -2.016992 -0.483070 -2.011308 11.010170 -29.444300 60.105781 -26.199859 45.882298 27.693521 0.000000 0.000000 0.000000 
-1.095247 77.316933 2.555382 0.000000 0.000000 0.000000 8.713970 -48.581913 11.899200 -57.925482 25.610781 33.548356 48.807009 -16.555035 6.348940 5.187038 -2.733148 -19.518790 -1.327037 -2.849837 16.171004 0.000000 0.000000 0.000000 10.084676 -46.814048 12.807630 -23.731905 2.004711 -21.418954 39.780401 4.705950 -6.356603 -25.143724 3.808437 21.869508 16.469456 4.951450 1.139883 0.000000 0.000000 0.000000 7.233882 -54.707329 11.294245 12.097897 4.094792 -3.739221 5.142927 8.744684 -4.249745 -0.551807 -2.223347 0.013795 0.000000 0.000000 0.000000 -2.126180 7.657167 -2.193471 -0.685181 13.322291 0.953919 -1.019715 16.581869 -3.258111 0.000000 0.000000 0.000000 -4.865350 7.479510 -2.845065 0.492159 -13.902213 -1.039179 7.574895 -1.351096 1.243795 -9.270768 1.813021 -42.259115 -24.494279 -36.814518 -16.759379 0.000000 0.000000 0.000000 -4.982671 7.117568 -2.074975 -2.798710 17.587244 0.766129 -0.843803 1.573270 -3.217317 10.401290 -29.277661 60.740012 -26.709849 46.450030 27.778067 0.000000 0.000000 0.000000 
-1.315867 76.128357 1.972725 0.000000 0.000000 0.000000 8.003222 -52.224371 11.697544 -56.967565 21.490623 34.630606 54.658626 -15.863470 7.401158 2.503711 0.090920 -19.868619 -1.422799 -2.083407 14.559884 0.000000 0.000000 0.000000 8.537133 -48.720272 11.677123 -24.344524 3.217824 -23.328675 41.646915 5.029614 -5.784330 -24.147613 1.740861 21.872897 16.087462 5.107174 0.809807 0.000000 0.000000 0.000000 5.317792 -55.393497 9.633143 13.145659 3.601839 -3.921739 5.338323 8.688935 -4.275502 -0.879134 -3.087541 0.501636 0.000000 0.000000 0.000000 -2.013742 7.530188 -2.208854 -0.053991 12.571831 0.985703 -0.419490 17.361265 -4.484939 0.000000 0.000000 0.000000 -4.846860 7.442708 -2.831687 0.183527 -11.580949 -1.040240 8.003240 -2.643030 1.377288 -8.042724 2.590587 -41.009900 -24.454580 -37.118588 -17.155495 0.000000 0.000000 0.000000 -5.033437 7.032624 -2.052107 -2.879353 19.190933 0.185734 -0.012428 3.160789 -3.613752 9.305023 -27.602201 60.039303 -26.146994 46.748728 26.362167 0.000000 0.000000 0.000000 
-1.886592 74.850555 1.628754 0.000000 0.000000 0.000000 7.303122 -57.066101 10.895800 -55.614679 16.810991 35.532526 60.897311 -13.614898 7.813510 -2.346151 4.973465 -16.485263 -1.299736 -0.879341 11.684603 0.000000 0.000000 0.000000 6.820276 -51.820481 10.021017 -25.403278 5.693405 -25.230654 44.459050 6.127568 -5.391678 -23.191136 -0.410224 23.954233 11.429147 5.167795 0.480169 0.000000 0.000000 0.000000 4.125188 -56.784837 7.708393 14.058732 3.134656 -3.800362 5.588030 8.618477 -4.307814 -0.303497 -3.583216 1.378791 0.000000 0.000000 0.000000 -1.709819 7.474358 -2.257098 0.491290 11.376963 0.897456 -0.182537 18.208738 -5.990032 0.000000 0.000000 0.000000 -4.557819 7.432464 -2.808266 -0.071489 -8.910380 -0.920822 8.306478 -3.993360 1.091885 -6.124868 3.706758 -39.376078 -24.470427 -37.413256 -17.849854 0.000000 0.000000 0.000000 -4.909296 6.972896 -2.055812 -2.978338 21.126310 -0.135874 0.191547 3.716539 -3.052502 7.403039 -24.996355 58.319475 -24.639547 46.167154 23.690912 0.000000 0.000000 0.000000 
-2.400855 73.779953 1.704994 0.000000 0.000000 0.000000 6.522646 -62.149742 9.144729 -53.817840 12.744555 35.415989 66.601543 -10.456675 6.952413 -9.408012 9.489307 -9.791663 -0.606007 0.428207 8.403515 0.000000 0.000000 0.000000 5.945595 -56.207747 8.273340 -26.192054 8.775092 -25.765319 46.610041 6.909624 -5.092133 -23.170163 -2.479935 25.602819 6.573356 5.081144 0.319909 0.000000 0.000000 0.000000 3.849140 -59.578716 5.806803 14.625677 2.873080 -3.237111 5.891247 8.610002 -4.259708 0.733042 -4.011882 2.191466 0.000000 0.000000 0.000000 -1.258493 7.551177 -2.240728 0.861692 9.912888 0.576161 -0.370415 19.206521 -7.496710 0.000000 0.000000 0.000000 -4.009997 7.524057 -2.690728 -0.253763 -6.137754 -0.867731 8.602584 -4.696203 0.804451 -3.101412 5.116506 -37.859991 -24.320804 -37.895846 -18.596071 0.000000 0.000000 0.000000 -4.603637 7.041708 -2.022415 -3.023219 23.403700 -0.173079 0.279461 3.289091 -1.443724 4.401295 -21.759164 55.749346 -22.612412 44.215882 20.311734 0.000000 0.000000 0.000000 
-2.480861 72.962997 2.186821 0.000000 0.000000 0.000000 6.069116 -67.151702 6.854061 -53.082557 9.160874 33.782235 72.436813 -8.383077 5.381875 -14.005233 10.541136 -4.916384 -0.236697 1.696510 5.883529 0.000000 0.000000 0.000000 7.019757 -61.653201 7.371689 -26.840043 12.012160 -24.302988 47.060253 6.886175 -4.742025 -24.605208 -3.872726 25.174667 4.404608 4.755416 0.379784 0.000000 0.000000 0.000000 4.958933 -64.029868 4.570532 14.656491 2.865024 -2.209321 6.259509 8.700279 -3.998050 0.922927 -4.123781 2.499395 0.000000 0.000000 0.000000 -0.687267 7.752882 -2.051703 1.115606 8.178043 -0.057646 -0.731496 20.028575 -8.665610 0.000000 0.000000 0.000000 -3.304441 7.704585 -2.380140 -0.359153 -3.406888 -0.957173 8.715096 -4.562410 0.587406 1.501298 6.253617 -37.200482 -23.804324 -39.112539 -19.152568 0.000000 0.000000 0.000000 -4.138085 7.195671 -1.864671 -3.001565 26.004837 0.147668 0.402128 2.048045 0.494266 0.413131 -17.804766 52.735556 -20.230144 40.265775 16.663450 0.000000 0.000000 0.000000 
-2.151406 72.554306 3.118858 0.000000 0.000000 0.000000 6.822983 -71.788826 5.097451 -53.965168 6.068919 30.539282 78.299895 -8.362936 3.968282 -12.311532 7.484620 -4.920175 -1.203097 2.768275 4.663764 0.000000 0.000000 0.000000 10.925604 -67.986023 8.505985 -28.101780 14.844494 -21.117219 46.047851 6.437580 -4.186942 -25.660193 -3.716603 23.418675 4.217344 4.264299 0.331249 0.000000 0.000000 0.000000 8.784784 -70.060624 5.655411 14.199181 3.043811 -0.826825 6.640788 8.847168 -3.448533 0.368330 -3.816068 2.660318 0.000000 0.000000 0.000000 -0.066007 7.998142 -1.611757 1.206273 6.231764 -0.839911 -1.208460 19.902539 -8.988992 0.000000 0.000000 0.000000 -2.574481 7.920959 -1.810657 -0.420431 -0.997385 -1.293921 8.586358 -3.827308 0.529045 7.908190 6.285497 -38.047658 -22.590596 -41.462974 -19.110111 0.000000 0.000000 0.000000 -3.560609 7.339179 -1.511357 -2.947427 29.008824 0.810184 0.594546 0.592163 1.832248 -3.734414 -12.670885 49.651323 -17.720738 34.627044 13.162614 0.000000 0.000000 0.000000 
-1.591341 72.570808 4.103161 0.000000 0.000000 0.000000 11.950945 -76.926932 7.477291 -55.275126 3.601748 24.983705 82.577643 -9.746064 3.296311 -6.692075 1.064201 -8.468623 -5.585450 3.393504 5.786546 0.000000 0.000000 0.000000 20.543896 -75.336973 15.368153 -30.748446 16.747769 -17.009241 44.158853 6.456816 -3.330128 -23.520989 -1.496081 22.724321 3.667423 3.634593 -0.167593 0.000000 0.000000 0.000000 19.289422 -77.262308 13.444808 13.406530 3.218679 0.765439 6.936382 8.934226 -2.556217 -0.450418 -3.521593 2.158130 0.000000 0.000000 0.000000 0.473265 8.148409 -0.827162 1.076830 3.975807 -1.647304 -1.896235 18.169813 -8.034365 0.000000 0.000000 0.000000 -1.951785 8.074532 -0.961087 -0.443772 0.962378 -1.766716 8.402805 -2.902007 0.832994 15.909957 4.158094 -40.609231 -20.524046 -45.202291 -18.136966 0.000000 0.000000 0.000000 -2.940509 7.355085 -0.932728 -2.911915 32.321165 1.931091 0.567204 -1.304983 2.520919 -7.015290 -5.514265 46.751610 -15.319406 28.869031 10.202583 0.000000 0.000000 0.000000 
-1.024165 73.044472 4.866341 0.000000 0.000000 0.000000 32.818953 -82.744258 25.950559 -55.174599 1.450255 16.729947 83.539955 -10.984110 3.209630 -3.045941 -6.306903 -11.489346 -13.098874 3.411726 8.559812 0.000000 0.000000 0.000000 51.200177 -82.270435 43.998791 -35.246720 17.609587 -13.037831 41.728675 8.026398 -2.492979 -17.686135 2.955041 24.777737 1.018966 2.762899 -1.049079 0.000000 0.000000 0.000000 58.487709 -83.198616 50.023247 12.388607 3.215936 2.314729 7.160830 8.825480 -1.370858 -1.149106 -3.185714 1.363401 0.000000 0.000000 0.000000 0.832404 8.035217 0.323199 0.714706 1.216154 -2.095158 -2.913236 14.373686 -5.716682 0.000000 0.000000 0.000000 -1.520300 8.022263 0.096457 -0.431690 2.082362 -2.183249 8.126538 -2.342183 1.304048 24.148096 -0.363024 -44.332439 -17.256540 -49.775690 -15.806480 0.000000 0.000000 0.000000 -2.307543 7.159400 -0.093769 -3.045404 35.686618 3.549658 -0.116231 -3.472857 2.645689 -8.628842 4.002717 43.858940 -13.014260 24.777698 7.782923 0.000000 0.000000 0.000000 
